<svg fill="#000000" xmlns="http://www.w3.org/2000/svg"  viewBox="0 0 468 468" width="58px" height="58px"><path d="M362.565 13.134c-.214-4.38-.513-8.76-.823-13.134H102.258c-.347 4.751-.674 9.517-.881 14.274-17.561 4.471-33.083 15.094-44.246 30.744-25.752 36.102-17.888 87.203 20.019 111.396l97.782 62.408c6.354 7.02 13.052 13.77 20.158 20.221 3.072 2.719 4.974 6.691 4.974 11.115v20.944l15 15.993V343h34v-56.223l16-15.994v-20.625c0-4.415 1.912-8.38 4.972-11.099 7.317-6.738 14.223-13.799 20.732-21.146l96.919-58.947c44.852-27.279 51.899-92.853 12.016-127.864C388.958 21.669 376.212 15.583 362.565 13.134zM93.118 131.399C69.469 116.305 65.359 84.59 81.293 62.252c5.419-7.597 12.445-13.301 20.402-16.776 2.486 38.881 12.772 76.397 30.079 110.594L93.118 131.399zM372.262 133.609l-40.858 24.849c18.173-35.454 28.822-74.501 31.063-114.927 7.601 2.286 13.486 6.212 17.657 9.874C405.143 75.37 400.298 116.558 372.262 133.609zM159.234 405.169h145.558v-32.771H159.234V405.169zM136.436 468H327.59v-33.153H136.436V468z"/></svg>