<svg xmlns="http://www.w3.org/2000/svg"  viewBox="0 0 468 468" width="58px" height="58px"><path d="M456,256.166c6.627,0,12-5.373,12-12V125.209c0-17.651-14.355-32.012-32-32.012H328.913V61.012 c0-17.651-14.355-32.012-32-32.012H171.087c-17.645,0-32,14.36-32,32.012v32.186H32c-17.645,0-32,14.36-32,32.012v281.779 C0,424.64,14.355,439,32,439h404c17.645,0,32-14.36,32-32.012v-66.967c0-6.627-5.373-12-12-12s-12,5.373-12,12v66.967 c0,4.418-3.589,8.012-8,8.012H32c-4.411,0-8-3.594-8-8.012V216.935l161.498,36.394v13.43c0,26.744,21.758,48.502,48.502,48.502 s48.502-21.758,48.502-48.502v-13.43L444,216.935v27.231C444,250.793,449.373,256.166,456,256.166z M258.502,266.759 c0,13.511-10.991,24.502-24.502,24.502s-24.502-10.991-24.502-24.502v-42.357h49.004V266.759z M163.087,93.197V61.012 c0-4.418,3.589-8.012,8-8.012h125.826c4.411,0,8,3.594,8,8.012v32.186H163.087z"/><ellipse cx="454.08" cy="293.155" rx="13.5" ry="13.508"/></svg>